<?xml version="1.0" standalone="no"?>
<!DOCTYPE svg PUBLIC "-//W3C//DTD SVG 20010904//EN"
 "http://www.w3.org/TR/2001/REC-SVG-20010904/DTD/svg10.dtd">
<svg version="1.0" xmlns="http://www.w3.org/2000/svg"
 width="260.000000pt" height="260.000000pt" viewBox="0 0 260.000000 260.000000"
 preserveAspectRatio="xMidYMid meet">
<metadata>
Created by potrace 1.11, written by Peter Selinger 2001-2013
</metadata>
<g transform="translate(0.000000,260.000000) scale(0.100000,-0.100000)"
fill="#000000" stroke="none">
<path d="M433 2001 c-74 -46 -83 -140 -19 -198 53 -49 130 -45 179 10 17 20
23 19 733 -169 813 -215 764 -195 691 -280 -40 -45 -136 -155 -253 -289 -29
-33 -62 -71 -73 -84 -20 -23 -21 -23 -61 -7 -140 56 -289 -46 -290 -199 0
-135 131 -240 258 -207 55 15 85 35 124 83 50 62 54 177 8 240 l-19 27 53 58
c29 33 117 133 195 224 134 154 145 164 175 162 67 -6 113 66 82 127 -28 54
-83 67 -129 31 l-25 -20 -684 181 c-375 99 -700 185 -720 190 -31 8 -38 14
-38 35 0 14 -14 40 -33 60 -42 46 -104 56 -154 25z"/>
</g>
</svg>
